<?xml version="1.0" standalone="no"?>
<!DOCTYPE svg PUBLIC "-//W3C//DTD SVG 20010904//EN"
 "http://www.w3.org/TR/2001/REC-SVG-20010904/DTD/svg10.dtd">
<svg version="1.0" xmlns="http://www.w3.org/2000/svg"
 width="192.000000pt" height="192.000000pt" viewBox="0 0 192.000000 192.000000"
 preserveAspectRatio="xMidYMid meet">

<g transform="translate(0.000000,192.000000) scale(0.100000,-0.100000)"
fill="#000000" stroke="none">
<path d="M1915 960 c0 -531 1 -748 2 -483 2 266 2 700 0 965 -1 266 -2 49 -2
-482z"/>
<path d="M756 1564 c-78 -19 -188 -78 -241 -130 -24 -23 -56 -66 -70 -94 -58
-114 -58 -118 -62 -497 l-4 -353 90 0 91 0 0 234 c0 204 2 235 16 247 23 19
91 15 114 -6 19 -17 20 -32 20 -247 l0 -228 95 0 95 0 0 148 c1 162 2 163 51
42 36 -89 73 -135 131 -164 81 -41 166 -31 243 29 72 55 138 186 152 302 l6
53 -110 0 -110 0 -5 -49 c-3 -27 -16 -71 -29 -97 -19 -39 -29 -49 -49 -49 -22
0 -28 10 -61 100 -46 131 -77 190 -132 251 -66 73 -134 107 -227 111 -61 4
-82 1 -114 -16 l-38 -20 6 40 c13 84 69 155 156 200 39 20 60 24 150 24 89 0
113 -4 157 -24 64 -29 137 -105 154 -160 l12 -41 114 0 113 0 -6 28 c-3 15
-23 64 -45 108 -62 130 -176 219 -334 259 -74 19 -249 18 -329 -1z"/>
</g>
</svg>
